<svg width="33" height="33" viewBox="0 0 33 33" fill="none" xmlns="http://www.w3.org/2000/svg">
<circle cx="16.5" cy="16.5" r="16.5" fill="black"/>
<path d="M17.2197 6.21753H17.2149C11.9409 6.21753 7.6521 10.5075 7.6521 15.7827C7.6521 17.8751 8.32645 19.8145 9.47308 21.3892L8.28101 24.9426L11.9576 23.7673C13.4701 24.7693 15.2744 25.348 17.2197 25.348C22.4937 25.348 26.7825 21.0568 26.7825 15.7827C26.7825 10.5087 22.4937 6.21753 17.2197 6.21753ZM22.7855 19.7248C22.5547 20.3764 21.6388 20.9169 20.9083 21.0747C20.4085 21.1811 19.7557 21.266 17.5581 20.3549C14.7471 19.1904 12.9369 16.3339 12.7958 16.1486C12.6607 15.9633 11.6599 14.6361 11.6599 13.2635C11.6599 11.8909 12.357 11.2225 12.638 10.9356C12.8687 10.7 13.2501 10.5924 13.616 10.5924C13.7344 10.5924 13.8408 10.5984 13.9364 10.6032C14.2174 10.6151 14.3585 10.6319 14.5438 11.0755C14.7746 11.6314 15.3366 13.0041 15.4035 13.1451C15.4717 13.2862 15.5398 13.4775 15.4442 13.6629C15.3545 13.8542 15.2756 13.9391 15.1345 14.1017C14.9934 14.2643 14.8595 14.3886 14.7184 14.5632C14.5893 14.715 14.4434 14.8776 14.606 15.1586C14.7686 15.4336 15.3306 16.3507 16.158 17.0872C17.2257 18.0377 18.0913 18.3414 18.401 18.4706C18.6318 18.5662 18.9068 18.5435 19.0754 18.3642C19.2894 18.1334 19.5536 17.7508 19.8226 17.3742C20.0139 17.1039 20.2555 17.0705 20.5089 17.1661C20.7672 17.2558 22.1338 17.9313 22.4148 18.0712C22.6958 18.2123 22.8811 18.2793 22.9493 18.3976C23.0162 18.516 23.0162 19.072 22.7855 19.7248Z" fill="white"/>
</svg>
